<?xml version="1.0" standalone="no"?>
<!DOCTYPE svg PUBLIC "-//W3C//DTD SVG 20010904//EN"
 "http://www.w3.org/TR/2001/REC-SVG-20010904/DTD/svg10.dtd">
<svg version="1.0" xmlns="http://www.w3.org/2000/svg"
 width="225.000000pt" height="225.000000pt" viewBox="0 0 225.000000 225.000000"
 preserveAspectRatio="xMidYMid meet">
<metadata>
Created by potrace 1.16, written by Peter Selinger 2001-2019
</metadata>
<g transform="translate(0.000000,225.000000) scale(0.100000,-0.100000)"
fill="#000000" stroke="none">
<path d="M975 2239 c-169 -21 -382 -107 -516 -208 -144 -109 -261 -249 -339
-406 -276 -556 -50 -1230 505 -1505 557 -276 1230 -50 1505 505 276 557 50
1230 -505 1505 -204 101 -422 137 -650 109z m213 -466 c24 -20 482 -1116 482
-1152 0 -32 -43 -71 -79 -71 -35 0 -39 3 -384 283 -142 115 -261 207 -263 204
-3 -2 -47 -110 -98 -238 l-94 -234 -86 -3 -87 -3 16 38 c9 21 120 288 247 593
155 374 238 562 255 578 29 26 63 28 91 5z"/>
<path d="M1071 1363 c-39 -98 -71 -181 -71 -185 0 -6 416 -338 424 -338 4 0
-272 691 -279 698 -1 2 -35 -77 -74 -175z"/>
</g>
</svg>
